<svg xmlns="http://www.w3.org/2000/svg" viewBox="0 0 392.67 65"><defs><style>.cls-1{fill:#fff;}</style></defs><g id="Layer_2" data-name="Layer 2"><g id="Layer_1-2" data-name="Layer 1"><path class="cls-1" d="M195.82,0h0c0,.06-8.41,11-8.34,14.92a25,25,0,0,0,1.22,7.23,7.45,7.45,0,0,0-13.92,3.58,7.44,7.44,0,0,0,13.29,4.49c-.4.89-.94,1.87-1.59,3-1,1.69-2.56,1.92-3.88,2.52s-6.2.32-9.06-.45c-6.46-1.74-7.21-4.53-7.81-9.21a3.57,3.57,0,1,0-.86,0c-.25,2-.59,4.42-.91,5.78-.63,2.6-3.41,3.51-5,3.51s-2.79-1.23-9-5.36-12.84-4.89-19.33-3.84-10.53,10.12-10.53,10.12l1.72-1.38c1.7-1.38,3.39-2.13,9.27-1.68s7.27,3.06,9.9,6,6.19,9.49,12.68,10.42,11.44,3.36,17.95,7c6,3.4,21.72,2.09,24.13,1.86,2.39.23,18.14,1.54,24.13-1.86,6.49-3.68,11.45-6.13,17.94-7S248,42.11,250.57,39.2s4-5.51,9.9-6,7.6.3,9.29,1.68l1.7,1.38s-4-9-10.53-10.12-13.13-.3-19.32,3.84-7.43,5.36-9,5.36-4.33-.91-4.94-3.51c-.32-1.36-.67-3.76-.93-5.78a3.55,3.55,0,1,0-.86,0c-.58,4.68-1.34,7.47-7.81,9.21-2.85.77-7.74,1.08-9.06.45s-2.86-.83-3.87-2.52c-.67-1.13-1.18-2.11-1.6-3a7.46,7.46,0,0,0,5.87,2.85,7.35,7.35,0,1,0-6.49-10.92,25.69,25.69,0,0,0,1.22-7.23c.07-4-8.29-14.86-8.34-14.92"/><path class="cls-1" d="M166.87,53.06h57.59c4.25,0,7.73,2.67,7.73,6s-3.48,6-7.73,6H166.87c-4.26,0-7.74-2.7-7.74-6s3.48-6,7.74-6"/><path class="cls-1" d="M152.11,60.34a2.72,2.72,0,1,1-2.72-2.69,2.7,2.7,0,0,1,2.72,2.69"/><path class="cls-1" d="M137.33,60.34a2.73,2.73,0,1,1-2.72-2.69,2.71,2.71,0,0,1,2.72,2.69"/><path class="cls-1" d="M122.54,60.34a2.72,2.72,0,1,1-2.72-2.69,2.7,2.7,0,0,1,2.72,2.69"/><path class="cls-1" d="M107.73,60.34a2.71,2.71,0,1,1-2.7-2.69,2.69,2.69,0,0,1,2.7,2.69"/><path class="cls-1" d="M93,60.34a2.72,2.72,0,1,1-2.72-2.69A2.7,2.7,0,0,1,93,60.34"/><path class="cls-1" d="M78.16,60.34a2.71,2.71,0,1,1-2.72-2.69,2.69,2.69,0,0,1,2.72,2.69"/><path class="cls-1" d="M63.37,60.34a2.72,2.72,0,1,1-2.71-2.69,2.7,2.7,0,0,1,2.71,2.69"/><path class="cls-1" d="M48.58,60.34a2.71,2.71,0,1,1-2.71-2.69,2.7,2.7,0,0,1,2.71,2.69"/><path class="cls-1" d="M33.8,60.34a2.72,2.72,0,1,1-2.72-2.69,2.7,2.7,0,0,1,2.72,2.69"/><path class="cls-1" d="M20.2,60.34a2.71,2.71,0,1,1-2.7-2.69,2.69,2.69,0,0,1,2.7,2.69"/><path class="cls-1" d="M5.42,60.34A2.7,2.7,0,0,1,2.71,63a2.69,2.69,0,1,1,2.71-2.69"/><path class="cls-1" d="M392.67,60.34A2.72,2.72,0,1,1,390,57.65a2.7,2.7,0,0,1,2.71,2.69"/><path class="cls-1" d="M377.88,60.34a2.71,2.71,0,1,1-2.71-2.69,2.7,2.7,0,0,1,2.71,2.69"/><path class="cls-1" d="M363.1,60.34A2.72,2.72,0,0,1,360.38,63a2.69,2.69,0,1,1,0-5.38,2.72,2.72,0,0,1,2.72,2.69"/><path class="cls-1" d="M348.31,60.34a2.72,2.72,0,1,1-2.72-2.69,2.7,2.7,0,0,1,2.72,2.69"/><path class="cls-1" d="M333.51,60.34a2.71,2.71,0,1,1-2.71-2.69,2.7,2.7,0,0,1,2.71,2.69"/><path class="cls-1" d="M318.73,60.34A2.72,2.72,0,1,1,316,57.65a2.7,2.7,0,0,1,2.72,2.69"/><path class="cls-1" d="M303.94,60.34a2.72,2.72,0,1,1-2.72-2.69,2.71,2.71,0,0,1,2.72,2.69"/><path class="cls-1" d="M289.14,60.34a2.72,2.72,0,1,1-2.72-2.69,2.7,2.7,0,0,1,2.72,2.69"/><path class="cls-1" d="M274.36,60.34a2.72,2.72,0,1,1-2.72-2.69,2.7,2.7,0,0,1,2.72,2.69"/><path class="cls-1" d="M259.57,60.34a2.72,2.72,0,1,1-2.73-2.69,2.71,2.71,0,0,1,2.73,2.69"/><path class="cls-1" d="M244.79,60.34a2.72,2.72,0,1,1-2.74-2.69,2.71,2.71,0,0,1,2.74,2.69"/></g></g></svg>