<svg xmlns="http://www.w3.org/2000/svg" viewBox="0 0 392.67 65"><defs><style>.cls-1{fill:#fff;}</style></defs><g id="Layer_2" data-name="Layer 2"><g id="Layer_1-2" data-name="Layer 1"><path class="cls-1" d="M196.85,65h0c.06-.06,8.41-11,8.34-14.92A25,25,0,0,0,204,42.85a7.47,7.47,0,0,0,6.48,3.77,7.35,7.35,0,1,0-5.85-11.83,33.85,33.85,0,0,1,1.59-3c1-1.69,2.56-1.92,3.88-2.52s6.2-.32,9.06.45c6.47,1.74,7.21,4.53,7.81,9.22a3.57,3.57,0,1,0,.86,0c.26-2,.6-4.43.91-5.79.63-2.6,3.42-3.51,5-3.51s2.78,1.23,9,5.36,12.84,4.89,19.34,3.84S272.5,28.71,272.5,28.71l-1.71,1.38c-1.7,1.38-3.4,2.13-9.28,1.68s-7.27-3.06-9.89-6-6.19-9.49-12.69-10.42S227.49,12,221,8.34c-6-3.4-21.73-2.09-24.14-1.86-2.39-.23-18.14-1.54-24.13,1.86-6.49,3.68-11.45,6.13-17.93,7S144.72,22.89,142.1,25.8s-4,5.51-9.89,6-7.6-.3-9.3-1.68l-1.7-1.38s4,9,10.53,10.12,13.13.3,19.32-3.84,7.43-5.36,9-5.36,4.34.91,4.94,3.51c.32,1.36.68,3.76.93,5.79a3.55,3.55,0,1,0,.86,0c.58-4.69,1.35-7.48,7.81-9.22,2.85-.77,7.75-1.08,9.06-.45s2.86.83,3.87,2.52c.67,1.13,1.18,2.11,1.6,3a7.33,7.33,0,1,0,.62,8.06,26.13,26.13,0,0,0-1.22,7.23c-.07,4,8.29,14.86,8.34,14.92"/><path class="cls-1" d="M225.81,11.94h-57.6c-4.25,0-7.73-2.67-7.73-6s3.48-6,7.73-6h57.6c4.25,0,7.73,2.7,7.73,6s-3.48,6-7.73,6"/><path class="cls-1" d="M240.56,4.66a2.72,2.72,0,1,1,2.72,2.69,2.71,2.71,0,0,1-2.72-2.69"/><path class="cls-1" d="M255.34,4.66a2.73,2.73,0,0,1,5.46,0,2.73,2.73,0,0,1-5.46,0"/><path class="cls-1" d="M270.14,4.66a2.72,2.72,0,1,1,2.71,2.69,2.7,2.7,0,0,1-2.71-2.69"/><path class="cls-1" d="M284.94,4.66a2.71,2.71,0,1,1,2.7,2.69,2.69,2.69,0,0,1-2.7-2.69"/><path class="cls-1" d="M299.71,4.66a2.72,2.72,0,1,1,2.72,2.69,2.71,2.71,0,0,1-2.72-2.69"/><path class="cls-1" d="M314.51,4.66a2.72,2.72,0,1,1,2.72,2.69,2.7,2.7,0,0,1-2.72-2.69"/><path class="cls-1" d="M329.31,4.66A2.71,2.71,0,1,1,332,7.35a2.7,2.7,0,0,1-2.7-2.69"/><path class="cls-1" d="M344.09,4.66a2.71,2.71,0,1,1,2.71,2.69,2.7,2.7,0,0,1-2.71-2.69"/><path class="cls-1" d="M358.88,4.66a2.71,2.71,0,1,1,2.71,2.69,2.7,2.7,0,0,1-2.71-2.69"/><path class="cls-1" d="M372.47,4.66a2.72,2.72,0,1,1,2.71,2.69,2.7,2.7,0,0,1-2.71-2.69"/><path class="cls-1" d="M387.25,4.66A2.71,2.71,0,1,1,390,7.35a2.7,2.7,0,0,1-2.72-2.69"/><path class="cls-1" d="M0,4.66A2.72,2.72,0,1,1,2.71,7.35,2.71,2.71,0,0,1,0,4.66"/><path class="cls-1" d="M14.79,4.66A2.72,2.72,0,1,1,17.5,7.35a2.71,2.71,0,0,1-2.71-2.69"/><path class="cls-1" d="M29.58,4.66a2.72,2.72,0,1,1,2.71,2.69,2.71,2.71,0,0,1-2.71-2.69"/><path class="cls-1" d="M44.37,4.66a2.72,2.72,0,1,1,2.72,2.69,2.7,2.7,0,0,1-2.72-2.69"/><path class="cls-1" d="M59.16,4.66a2.71,2.71,0,1,1,2.71,2.69,2.7,2.7,0,0,1-2.71-2.69"/><path class="cls-1" d="M73.94,4.66a2.72,2.72,0,1,1,2.73,2.69,2.71,2.71,0,0,1-2.73-2.69"/><path class="cls-1" d="M88.73,4.66a2.72,2.72,0,0,1,5.44,0,2.72,2.72,0,0,1-5.44,0"/><path class="cls-1" d="M103.53,4.66a2.72,2.72,0,1,1,2.72,2.69,2.7,2.7,0,0,1-2.72-2.69"/><path class="cls-1" d="M118.31,4.66A2.73,2.73,0,1,1,121,7.35a2.71,2.71,0,0,1-2.73-2.69"/><path class="cls-1" d="M133.1,4.66a2.72,2.72,0,1,1,2.73,2.69,2.71,2.71,0,0,1-2.73-2.69"/><path class="cls-1" d="M147.89,4.66a2.72,2.72,0,1,1,2.73,2.69,2.71,2.71,0,0,1-2.73-2.69"/></g></g></svg>