<svg xmlns="http://www.w3.org/2000/svg" viewBox="0 0 254.62 56.55"><g id="Layer_2" data-name="Layer 2"><g id="Layer_1-2" data-name="Layer 1"><path d="M.24,31.07A.92.92,0,0,1,0,30.44V21.36a1.08,1.08,0,0,1,.75-1.08H.83a.79.79,0,0,1,.2,0A.94.94,0,0,1,2,21a.93.93,0,0,1,0,.32v8.12H6.53a1.17,1.17,0,0,1,.32,0,1.28,1.28,0,0,1,.58.36.87.87,0,0,1,.19.57v.1s0,.06,0,.1a.19.19,0,0,1,0,.08,1.05,1.05,0,0,1-1.07.75H1A.9.9,0,0,1,.24,31.07Z"/><path d="M13.55,30.79s0,0,0,0a.08.08,0,0,0,0,0,1,1,0,0,1,0-.29V21.28a1,1,0,0,1,.75-1l.23,0h0a1,1,0,0,1,.95.71l0,0v0a1.88,1.88,0,0,1,0,.34v8.92a1,1,0,0,1-.76,1.1.55.55,0,0,1-.24,0h0A1,1,0,0,1,13.55,30.79Z"/><path d="M21.74,31.24a1,1,0,0,1-.29-.39l0-.1a1,1,0,0,1-.05-.19.57.57,0,0,1,0-.14V21.28a1,1,0,0,1,.71-1h.08a.65.65,0,0,1,.19,0h3.12A5.18,5.18,0,0,1,30.84,24a7,7,0,0,1,.26,1.78,5.85,5.85,0,0,1-1.64,4.13,5.36,5.36,0,0,1-4,1.51h-3.1A.87.87,0,0,1,21.74,31.24Zm4-1.78a3.2,3.2,0,0,0,3.15-2.31,4.37,4.37,0,0,0,.2-1.27v-.12a3.37,3.37,0,0,0-1.85-3.2,3.63,3.63,0,0,0-1.48-.3H23.35v7.2Z"/><path d="M41.77,31.4a5.64,5.64,0,0,1-1.06-.26,4.7,4.7,0,0,1-.86-.37l-.25-.15a3.77,3.77,0,0,1-.39-.26,5.33,5.33,0,0,1-.67-.56,5.81,5.81,0,0,1-1.08-1.58l0-.1v0A6.79,6.79,0,0,1,37,26c0-.07,0-.13,0-.16s0-.1,0-.17a6.72,6.72,0,0,1,.47-2.08v0a5.15,5.15,0,0,1,1.11-1.66,4.23,4.23,0,0,1,.67-.56,3.45,3.45,0,0,1,.64-.41,4,4,0,0,1,.86-.38,6.09,6.09,0,0,1,1.06-.26c.23,0,.49,0,.76,0s.55,0,.77,0a5,5,0,0,1,1.12.28,3.29,3.29,0,0,1,.62.27,3.11,3.11,0,0,1,.82.5,4.42,4.42,0,0,1,.67.56,5.41,5.41,0,0,1,1.09,1.57s0,.06,0,.07a0,0,0,0,0,0,0v0a6.14,6.14,0,0,1,.47,2.08V26a6.74,6.74,0,0,1-.45,2.06,0,0,0,0,0,0,0v0a5.44,5.44,0,0,1-1.12,1.66,6.26,6.26,0,0,1-.67.56,5.52,5.52,0,0,1-.64.41,4,4,0,0,1-.85.37,5.55,5.55,0,0,1-1.07.26,9.77,9.77,0,0,1-1.53,0Zm2-2.15a3.5,3.5,0,0,0,.39-.17L44.3,29a3.35,3.35,0,0,0,.72-.57l0,0h0A3.62,3.62,0,0,0,46,26.68a4.47,4.47,0,0,0,.08-.82A4.52,4.52,0,0,0,46,25a3.61,3.61,0,0,0-.95-1.69l0,0a4.2,4.2,0,0,0-.76-.59,5.37,5.37,0,0,0-.54-.25,4.89,4.89,0,0,0-1.28-.2,4.79,4.79,0,0,0-1.16.2c-.17.07-.35.15-.54.25a3.94,3.94,0,0,0-.76.59l0,0A3.66,3.66,0,0,0,39,25a5.75,5.75,0,0,0-.1.84,5.69,5.69,0,0,0,.1.82,3.71,3.71,0,0,0,1,1.71l0,0a3.55,3.55,0,0,0,.76.6l.22.1a2.84,2.84,0,0,0,.32.14,5.18,5.18,0,0,0,1.16.21A5.1,5.1,0,0,0,43.76,29.25Z"/><path d="M54,30.74h0v0l0-.19a0,0,0,0,0,0,0v0a.19.19,0,0,1,0-.08V27.63a.62.62,0,0,1,0-.16V23.52c0-.05,0-.08,0-.11V21a.13.13,0,0,1,0-.1c.12-.41.34-.61.66-.61h4.66a3.9,3.9,0,0,1,.79.09,3.19,3.19,0,0,1,2.41,2.36,6.81,6.81,0,0,1,.13.94,3.2,3.2,0,0,1-1.41,2.7,3.87,3.87,0,0,1-.46.24c1.09,2.28,1.66,3.51,1.71,3.68a.6.6,0,0,1,0,.22,1,1,0,0,1-.74.94l-.1,0-.17,0c-.5,0-.88-.4-1.16-1.2l-1.63-3.42H56v3.48a1,1,0,0,1-.5,1,.87.87,0,0,1-.19.08.15.15,0,0,1-.08,0,.73.73,0,0,1-.25,0h0A.94.94,0,0,1,54,30.74Zm5.44-6a1,1,0,0,0,1.11-1v-.26a1.23,1.23,0,0,0-.76-1.21,1,1,0,0,0-.36-.05H56v2.51Z"/><path d="M81.92,31.37a1.08,1.08,0,0,1-.66-.88.2.2,0,0,1,0-.09.35.35,0,0,0,0-.06.19.19,0,0,0,0-.08,1,1,0,0,1,1.06-.8h3.7a1.16,1.16,0,0,0,.38-.06,1.31,1.31,0,0,0,.83-1.31V28c0-.78-.47-1.17-1.39-1.17H84.43a3.56,3.56,0,0,1-1.81-.5,3.23,3.23,0,0,1-1.41-2.7,6.12,6.12,0,0,1,.14-.94,3.18,3.18,0,0,1,3.26-2.45h2.93v0h.24a1,1,0,0,1,1.08.76c0,.11,0,.2,0,.26a1,1,0,0,1-.76.94l-.1,0-.19,0h-3.4a1.09,1.09,0,0,0-.38.05,1.33,1.33,0,0,0-.83,1.31v.09c0,.77.46,1.15,1.39,1.15h1.45a3.54,3.54,0,0,1,1.8.5,3.22,3.22,0,0,1,1.41,2.71,7.16,7.16,0,0,1-.13,1,3.62,3.62,0,0,1-1.22,1.83,3.31,3.31,0,0,1-2,.61H82.36A1.27,1.27,0,0,1,81.92,31.37Z"/><path d="M103.66,30.77a1.21,1.21,0,0,1,0-.34V24.32c-1.29,1.74-2.14,2.87-2.56,3.38a1.05,1.05,0,0,1-.68.28c-.42,0-.82-.31-1.19-.93l-2-2.59h0v6a1,1,0,0,1-.73,1,.75.75,0,0,1-.29.06h0a.91.91,0,0,1-.59-.19,1.4,1.4,0,0,1-.4-.59l0-.08v-.1a.17.17,0,0,1,0-.07V21.31a1,1,0,0,1,.19-.62,1.4,1.4,0,0,1,.59-.4h.25c.45,0,.84.3,1.19.91l3,4c2.19-2.92,3.37-4.49,3.55-4.69l0,0h0a1,1,0,0,1,.62-.2h0a1,1,0,0,1,1,.72v.07a2.45,2.45,0,0,1,0,.34v8.91a1,1,0,0,1-.78,1.11.64.64,0,0,1-.24,0h0A1,1,0,0,1,103.66,30.77Z"/><path d="M111.55,30.76l0,0s0,0,0,0l0-.18s0,0,0-.06,0-.06,0-.07a7.36,7.36,0,0,1,.65-1.51q1-2,2.06-4.3l.24-.51c.08-.14.27-.54.59-1.21.07-.16.17-.36.27-.59l.39-.79a2.39,2.39,0,0,1,.49-.92,1,1,0,0,1,.69-.3h0a1,1,0,0,1,.69.3,2.53,2.53,0,0,1,.5.92c.79,1.65,1.36,2.84,1.7,3.57a12.67,12.67,0,0,1,.51,1.16v0l1.34,2.63a8,8,0,0,1,.65,1.51.13.13,0,0,1,0,.06.2.2,0,0,1,0,.07l0,.18v0l0,0a1,1,0,0,1-1.65.36s0-.05,0-.06-.37-.7-.9-1.79l-.32-.64a2.48,2.48,0,0,1-.45.05h-4.09l-.31,0c-.64,1.32-1,2.13-1.21,2.41,0,0,0,0,0,.06a1,1,0,0,1-.73.33A1,1,0,0,1,111.55,30.76Zm6.81-4.08a1.1,1.1,0,0,1-.12-.29c-.11-.23-.21-.43-.28-.6l-1.06-2.21h0l-1.05,2.21-.17.38-.11.22c0,.08-.07.18-.12.29Z"/><path d="M128.55,31.24a1,1,0,0,1-.29-.39l0-.1a1,1,0,0,1-.05-.19.57.57,0,0,1,0-.14V21.28a1,1,0,0,1,.71-1H129a.65.65,0,0,1,.19,0h3.12A5.18,5.18,0,0,1,137.65,24a7,7,0,0,1,.27,1.78,5.85,5.85,0,0,1-1.65,4.13,5.35,5.35,0,0,1-4,1.51h-3.1A.89.89,0,0,1,128.55,31.24Zm4-1.78a3.19,3.19,0,0,0,3.15-2.31,4.37,4.37,0,0,0,.2-1.27v-.12a3.37,3.37,0,0,0-1.85-3.2,3.63,3.63,0,0,0-1.48-.3h-2.41v7.2Z"/><path d="M144.52,29.75a4.21,4.21,0,0,1-.75-2.44V25.87a1,1,0,0,1,.72-1,.63.63,0,0,1,.28,0,1,1,0,0,1,1,.75l0,0s0,0,0,0a.92.92,0,0,1,0,.16v1.23a2.17,2.17,0,0,0,.59,1.75,2.51,2.51,0,0,0,1.74.64,2.26,2.26,0,0,0,2.05-1.09,2,2,0,0,0,.25-.94V21.5a1.17,1.17,0,0,1,.74-1.22l.05,0h.24a1,1,0,0,1,.94.74v0a0,0,0,0,1,0,0,2.48,2.48,0,0,1,0,.29v5.79a4,4,0,0,1-2.83,4.1,5.81,5.81,0,0,1-1.46.22h0A4.4,4.4,0,0,1,144.52,29.75Z"/><path d="M158.13,30.76v0s0,0,0,0l0-.18s0,0,0-.06,0-.06,0-.07a7.69,7.69,0,0,1,.64-1.51c.65-1.33,1.33-2.76,2.07-4.3l.24-.51c.07-.14.27-.54.58-1.21l.28-.59.39-.79a2.39,2.39,0,0,1,.49-.92,1,1,0,0,1,.69-.3h0a.91.91,0,0,1,.68.3,2.39,2.39,0,0,1,.51.92c.79,1.65,1.35,2.84,1.69,3.57a11.5,11.5,0,0,1,.52,1.16v0l1.34,2.63a8,8,0,0,1,.65,1.51.13.13,0,0,1,0,.06.2.2,0,0,1,0,.07l0,.18a0,0,0,0,1,0,0v0a1,1,0,0,1-.93.69,1,1,0,0,1-.72-.33s0-.05,0-.06-.38-.7-.9-1.79l-.32-.64a2.48,2.48,0,0,1-.45.05h-4.09l-.31,0c-.65,1.32-1.05,2.13-1.21,2.41,0,0,0,0-.05.06a1,1,0,0,1-.73.33A1,1,0,0,1,158.13,30.76Zm6.81-4.08a1.6,1.6,0,0,1-.11-.29c-.12-.23-.21-.43-.28-.6l-1.06-2.21h0l-1.05,2.21-.18.38-.1.22c0,.08-.07.18-.12.29Z"/><path d="M185.77,27.72a3,3,0,0,0,3,1.75,15,15,0,0,0,4.65-1,51.75,51.75,0,0,0,10-4.28,70.07,70.07,0,0,0,17.14-13.81A113.23,113.23,0,0,0,228.54.74a.46.46,0,0,0-.6-.68A65.74,65.74,0,0,0,215.13,9a86.45,86.45,0,0,0-10.16,11c-3.11,3.91-6,8-9,12a131.75,131.75,0,0,1-9.53,11.67,114.57,114.57,0,0,1-12,10.91l-1.56,1.24.66.58a81.54,81.54,0,0,1,27.07-26q2-1.21,4.15-2.3a3,3,0,0,1,2.29-.49,1.74,1.74,0,0,1,.92,1.46c.19,1.26-.06,2.52.52,3.71a2,2,0,0,0,2.9,1,10.54,10.54,0,0,0,1.6-1.67,13.59,13.59,0,0,1,1.71-1.51,13.91,13.91,0,0,1,4.16-2.09c3.47-1,7-.29,10.45.15,7.44,1,14.78-.86,22.18-1.35.9-.07,1.8-.1,2.7-.12.59,0,.53-.91-.06-.9-7.52.12-14.93,2.15-22.47,1.69-3.63-.22-7.25-1.31-10.9-.8a14.45,14.45,0,0,0-8.27,4.14c-.67.69-1.95,2.8-3,1.45-.79-1-.47-2.43-.63-3.63-.18-1.38-1-2.61-2.56-2.49a5.82,5.82,0,0,0-2.14.75c-.72.38-1.44.76-2.15,1.15A82.61,82.61,0,0,0,186.6,39.5a81.78,81.78,0,0,0-12.55,14.43c-.44.65-.88,1.31-1.3,2-.25.39.32.85.66.58a129,129,0,0,0,12.12-10.64,116.13,116.13,0,0,0,9.8-11.57c3-4,5.91-8.06,9-12A97,97,0,0,1,214.21,11a64.08,64.08,0,0,1,12.55-9.28c.56-.32,1.13-.63,1.69-.93l-.59-.67A96.62,96.62,0,0,1,213.55,16a58.27,58.27,0,0,1-17.92,10.84,32.78,32.78,0,0,1-5.5,1.63c-1.14.2-3,.31-3.5-1a.46.46,0,0,0-.86.3Z"/></g></g></svg>