<svg xmlns="http://www.w3.org/2000/svg" viewBox="0 0 75.42 80"><defs><style>.cls-1{fill:#fff;}</style></defs><g id="Layer_2" data-name="Layer 2"><g id="Layer_1-2" data-name="Layer 1"><path class="cls-1" d="M53.75,80a29.21,29.21,0,0,1-10.54-2.84c-11-4.89-20-12.4-27.44-21.81a75.09,75.09,0,0,1-14-27.62A42.26,42.26,0,0,1,.12,13.15,23.56,23.56,0,0,1,.71,9.61,9.6,9.6,0,0,1,7.4,2.21,58.12,58.12,0,0,1,14.33.72a2.25,2.25,0,0,1,2.55,1.43c2.21,4.42,4.46,8.82,6.69,13.23a4,4,0,0,1-.55,4.7c-1.28,1.54-2.53,3.1-3.85,4.61A1.25,1.25,0,0,0,19,26.28a92.72,92.72,0,0,0,9.16,15.36A93.38,93.38,0,0,0,43.46,58.1a1.22,1.22,0,0,0,1.53.21c1.82-.89,3.67-1.72,5.51-2.57a3.93,3.93,0,0,1,4.61.68c3.69,3.29,7.37,6.59,11.08,9.87A2.34,2.34,0,0,1,67,69a24.19,24.19,0,0,1-3.49,6.75C61.15,78.87,58.66,80,53.75,80Z"/><path class="cls-1" d="M75.42,36.48c-.1,1.26-.19,2.74-.34,4.21a1.71,1.71,0,0,1-1.94,1.7,1.75,1.75,0,0,1-1.45-2.15A33.24,33.24,0,0,0,43.29,3.45l-.42-.06a1.71,1.71,0,0,1-1.46-2A1.64,1.64,0,0,1,43.33,0a31.82,31.82,0,0,1,9.25,2.42C64.81,7.74,72.19,17,74.82,30a23.85,23.85,0,0,1,.38,2.8C75.3,34,75.34,35.11,75.42,36.48Z"/><path class="cls-1" d="M65.37,36.38c-.07,1-.12,2-.24,3.07a1.73,1.73,0,0,1-1.86,1.71A1.78,1.78,0,0,1,61.74,39a21.37,21.37,0,0,0-1-9.88C57.5,20.24,51.25,15,41.94,13.39c-1.23-.21-1.95-.94-1.81-2s1-1.66,2.3-1.44c10,1.64,17,7.15,21,16.43A25.27,25.27,0,0,1,65.37,36.38Z"/><path class="cls-1" d="M55.09,36.27c0,.6,0,1.2-.1,1.8-.12,1.19-.87,1.89-1.87,1.79a1.71,1.71,0,0,1-1.55-2.07A12.77,12.77,0,0,0,45.9,25.6a12.19,12.19,0,0,0-5.3-2.06c-1.24-.19-1.88-.94-1.73-2s1-1.57,2.26-1.39A16.36,16.36,0,0,1,55.09,36.27Z"/></g></g></svg>