<svg xmlns="http://www.w3.org/2000/svg" viewBox="0 0 64.05 70.5"><defs><style>.cls-1{fill:#603e5d;}</style></defs><g id="Layer_2" data-name="Layer 2"><g id="Layer_1-2" data-name="Layer 1"><path class="cls-1" d="M11.2,6.45c0,1.86,0,3.64,0,5.42a4.88,4.88,0,0,0,.12,1.21,3.81,3.81,0,0,0,7.51-.83c0-1.7,0-3.4,0-5.1V6.49h3.69V7.7c0,1.45,0,2.89,0,4.33a3.83,3.83,0,1,0,7.65,0c0-1.82,0-3.65,0-5.53h3.64c0,.22,0,.45,0,.67,0,1.62,0,3.23,0,4.84a3.83,3.83,0,1,0,7.65,0V6.48H45.2v.7c0,1.66,0,3.31,0,5a3.82,3.82,0,1,0,7.64,0c0-1.83,0-3.65,0-5.48a.86.86,0,0,1,.06-.2c.2,0,.43,0,.65,0h5.62a4.71,4.71,0,0,1,4.87,4.9V65.52a4.72,4.72,0,0,1-5,5H5a4.7,4.7,0,0,1-5-4.94V11.45a4.72,4.72,0,0,1,5-5ZM32,67.18H58.93c1.36,0,1.8-.45,1.8-1.83V26.75c0-1.54-.41-2-1.94-2H5.28c-1.54,0-2,.41-2,1.94V65.39c0,1.36.45,1.79,1.84,1.79Z"/><path class="cls-1" d="M16.81,7v5a1.81,1.81,0,1,1-3.59,0q0-5,0-10A1.8,1.8,0,0,1,14.64.05a1.75,1.75,0,0,1,2,1A2.36,2.36,0,0,1,16.8,2c0,1.67,0,3.35,0,5Z"/><path class="cls-1" d="M28.16,7c0,1.66,0,3.31,0,5a1.78,1.78,0,0,1-1.81,2,1.8,1.8,0,0,1-1.78-2q0-5,0-10A1.77,1.77,0,0,1,25.74.12a1.66,1.66,0,0,1,2,.54A2.83,2.83,0,0,1,28.14,2C28.19,3.68,28.16,5.34,28.16,7Z"/><path class="cls-1" d="M39.49,7c0,1.66,0,3.31,0,5a1.8,1.8,0,1,1-3.59,0c0-3.38,0-6.75,0-10.13A1.78,1.78,0,0,1,37.68,0a1.8,1.8,0,0,1,1.81,1.86c0,1.72,0,3.44,0,5.16Z"/><path class="cls-1" d="M47.23,7c0-1.72,0-3.44,0-5.16A1.71,1.71,0,0,1,48.52.09a1.67,1.67,0,0,1,2,.71A2.32,2.32,0,0,1,50.82,2c0,3.33,0,6.66,0,10a1.8,1.8,0,1,1-3.58,0C47.23,10.28,47.23,8.63,47.23,7Z"/><path class="cls-1" d="M53.46,41c.77,0,1.55,0,2.32,0a1.16,1.16,0,0,1,1.29,1.27c0,1.6,0,3.19,0,4.78a1.15,1.15,0,0,1-1.28,1.28c-1.6,0-3.19,0-4.78,0A1.13,1.13,0,0,1,49.75,47c0-1.64,0-3.28,0-4.91A1.14,1.14,0,0,1,50.94,41C51.78,40.93,52.62,41,53.46,41Z"/><path class="cls-1" d="M53.38,58.86H51a1.15,1.15,0,0,1-1.24-1.25q0-2.41,0-4.83A1.14,1.14,0,0,1,51,51.54q2.41,0,4.83,0a1.13,1.13,0,0,1,1.24,1.24c0,1.61,0,3.23,0,4.84a1.12,1.12,0,0,1-1.24,1.23c-.82,0-1.64,0-2.45,0Z"/><path class="cls-1" d="M42.45,30.33c.79,0,1.59,0,2.38,0a1.14,1.14,0,0,1,1.26,1.23q0,2.41,0,4.83a1.16,1.16,0,0,1-1.31,1.25c-1.55,0-3.09,0-4.63,0-1,0-1.38-.42-1.39-1.37,0-1.55,0-3.09,0-4.64a1.16,1.16,0,0,1,1.3-1.31Z"/><path class="cls-1" d="M42.76,51.64h2.32c.86,0,1.29.41,1.29,1.25,0,1.62,0,3.23,0,4.85A1.11,1.11,0,0,1,45.16,59c-1.63,0-3.27,0-4.9,0a1.13,1.13,0,0,1-1.21-1.23c0-1.61,0-3.23,0-4.84a1.13,1.13,0,0,1,1.25-1.24C41.12,51.63,41.94,51.64,42.76,51.64Z"/><path class="cls-1" d="M10.59,59.27H8.27A1.14,1.14,0,0,1,7,58c0-1.59,0-3.19,0-4.78A1.13,1.13,0,0,1,8.25,52c1.6,0,3.19,0,4.78,0a1.16,1.16,0,0,1,1.27,1.3c0,1.57,0,3.14,0,4.71,0,.89-.43,1.29-1.32,1.31H10.59Z"/><path class="cls-1" d="M46.37,44.75c0,.79,0,1.59,0,2.39a1.13,1.13,0,0,1-1.24,1.24c-1.59,0-3.19,0-4.78,0a1.15,1.15,0,0,1-1.3-1.27c0-1.61,0-3.22,0-4.84a1.13,1.13,0,0,1,1.28-1.21c1.59,0,3.18,0,4.78,0a1.13,1.13,0,0,1,1.25,1.23C46.39,43.11,46.37,43.93,46.37,44.75Z"/><path class="cls-1" d="M10.61,48.69c-.8,0-1.6,0-2.39,0A1.11,1.11,0,0,1,7,47.44c0-1.61,0-3.22,0-4.84a1.12,1.12,0,0,1,1.2-1.23c1.63,0,3.27,0,4.9,0a1.12,1.12,0,0,1,1.22,1.21c0,1.62,0,3.23,0,4.85,0,.83-.46,1.23-1.31,1.25Z"/><path class="cls-1" d="M49.46,33.84V31.52a1.15,1.15,0,0,1,1.27-1.29c1.59,0,3.18,0,4.78,0a1.15,1.15,0,0,1,1.27,1.28c0,1.6,0,3.19,0,4.78a1.14,1.14,0,0,1-1.24,1.26c-1.59,0-3.18,0-4.77,0-.92,0-1.27-.38-1.3-1.31s0-1.59,0-2.39Z"/><path class="cls-1" d="M35.37,34.11c0,.8,0,1.59,0,2.39a1.12,1.12,0,0,1-1.28,1.26c-1.56,0-3.13,0-4.7,0-.9,0-1.31-.46-1.31-1.38,0-1.53,0-3.06,0-4.59a1.16,1.16,0,0,1,1.34-1.34h4.71a1.13,1.13,0,0,1,1.27,1.27c0,.8,0,1.6,0,2.39Z"/><path class="cls-1" d="M24.67,34.22c0,.82,0,1.64,0,2.45a1.07,1.07,0,0,1-1.15,1.18c-1.62,0-3.23,0-4.84,0a1.16,1.16,0,0,1-1.32-1.31c0-1.57,0-3.14,0-4.71a1.14,1.14,0,0,1,1.28-1.28c1.61,0,3.23,0,4.84,0a1.09,1.09,0,0,1,1.19,1.21c0,.82,0,1.64,0,2.45Z"/><path class="cls-1" d="M32.08,41.17c.8,0,1.59,0,2.39,0a1.09,1.09,0,0,1,1.2,1.2c0,1.64,0,3.27,0,4.91a1.08,1.08,0,0,1-1.16,1.19c-1.65,0-3.31,0-5,0a1.09,1.09,0,0,1-1.17-1.24c0-1.59,0-3.19,0-4.78,0-.89.43-1.28,1.33-1.29Z"/><path class="cls-1" d="M35.68,55.43c0,.8,0,1.6,0,2.39a1.11,1.11,0,0,1-1.24,1.24c-1.61,0-3.22,0-4.84,0a1.12,1.12,0,0,1-1.22-1.26c0-1.59,0-3.18,0-4.78a1.12,1.12,0,0,1,1.28-1.26q2.38,0,4.77,0c.86,0,1.24.41,1.25,1.29S35.68,54.64,35.68,55.43Z"/><path class="cls-1" d="M21.35,41.28h2.32c.88,0,1.3.39,1.31,1.24,0,1.61,0,3.23,0,4.84a1.11,1.11,0,0,1-1.26,1.22q-2.38,0-4.77,0a1.12,1.12,0,0,1-1.27-1.27q0-2.36,0-4.71c0-.93.4-1.31,1.35-1.32h2.32Z"/><path class="cls-1" d="M17.67,55.49c0-.79,0-1.59,0-2.38a1.11,1.11,0,0,1,1.23-1.25c1.61,0,3.22,0,4.84,0A1.11,1.11,0,0,1,25,53.11q0,2.39,0,4.77c0,.89-.43,1.28-1.33,1.28-1.55,0-3.1,0-4.64,0-.94,0-1.33-.4-1.33-1.34C17.67,57,17.67,56.27,17.67,55.49Z"/></g></g></svg>