<svg xmlns="http://www.w3.org/2000/svg" viewBox="0 0 309.25 278.11"><defs><style>.cls-1,.cls-2{fill:#fff;}.cls-2{fill-rule:evenodd;}</style></defs><g id="Layer_2" data-name="Layer 2"><g id="Layer_1-2" data-name="Layer 1"><path class="cls-1" d="M48.92,163.65c8.46-17.92,16.52-34,16.52-51.15C65.44,93,56,81.09,34.83,81.09c-19.93,0-32.42,11.28-30.41,42.29H16.1c-1-23.56,5.24-33,18.33-33,14.09,0,19.13,8.26,19.13,22.15.2,14.7-6.45,28.39-16.31,48.73L6.84,223.45H67.65v-9.26H25Z"/><path class="cls-1" d="M102.25,82.5H92.79C92.59,89.75,91.58,95,88.56,98c-3,3.22-7.25,4.63-14.09,4.63v9.26h15.9V214.19H73.26v9.26h43.49v-9.26h-14.5Z"/><path class="cls-1" d="M202.7,223.45h28.09v-9.26H215.73A121.22,121.22,0,0,1,202.7,223.45Z"/><path class="cls-1" d="M167.56,123.38h11.68c-.67-15.6,1.85-25,7.42-29.6q-.1-5.55-.18-11.12C173.44,86.7,166,98.87,167.56,123.38Z"/><path class="cls-1" d="M228.57,112.5c0-19.53-9.46-31.41-30.61-31.41a39.2,39.2,0,0,0-11.48,1.57q.08,5.57.18,11.12c2.84-2.34,6.48-3.43,10.9-3.43,14.1,0,19.13,8.26,19.13,22.15.2,14.7-6.44,28.39-16.31,48.73l-14.24,29.14c-.24,3.83-.5,7.67-.83,11.51-.58,7.25-1.41,14.42-2.38,21.57H202.7a121.22,121.22,0,0,0,13-9.26H188.1l24-50.54C220.52,145.73,228.57,129.62,228.57,112.5Z"/><path class="cls-1" d="M182.93,223.45c1-7.15,1.8-14.32,2.38-21.57.33-3.84.59-7.68.83-11.51L170,223.45Z"/><path class="cls-1" d="M243.56,107.49a78,78,0,0,0-.42,15.89h10.58a39.51,39.51,0,0,0-6.41-11.5Q245.45,109.66,243.56,107.49Z"/><path class="cls-1" d="M263.68,214.19l24-50.54c8.45-17.92,16.51-34,16.51-51.15,0-19.53-9.47-31.41-30.61-31.41-16.06,0-27.28,7.33-30,26.4q1.89,2.17,3.75,4.39a39.51,39.51,0,0,1,6.41,11.5h1.1c-1-23.56,5.23-33,18.32-33,14.09,0,19.13,8.26,19.13,22.15.2,14.7-6.44,28.39-16.31,48.73l-30.41,62.22h60.81v-9.26Z"/><path class="cls-1" d="M19.26,0H2.7V33.59h9.86V7.72h4.65c6.89,0,8.19,3.82,8.19,11.63V67.92H35.73V21.21C35.73,7.07,32.66,0,19.26,0Z"/><path class="cls-1" d="M49.3,0H39.07V7.72H46.7c6.79,0,8.84,3.35,8.84,13.22V55.83H65.87V20.56C65.87,5.68,62.8,0,49.3,0Z"/><rect class="cls-1" x="73.76" width="10.33" height="55.83"/><path class="cls-1" d="M109.57,0h-17V55.83h10.33V7.72h4.47c6.33,0,8.65,2.33,8.65,12.1v36h10.33V20.19C126.32,4.37,121.39,0,109.57,0Z"/><rect class="cls-1" x="149.18" width="10.33" height="31.92"/><path class="cls-1" d="M165.64,0,167,11.88h1.31c4,1,3,6,5,10,2,3.62,4,7.11,6.2,10.51L176,0Z"/><path class="cls-1" d="M189.27,35.17c0,4.32-.43,7-1.73,8.91,1.8,2.44,3.64,4.82,5.51,7.18,4.68-3.21,6.64-8.26,6.64-17.86V0H189.27Z"/><path class="cls-1" d="M181.17,47.64l-1.66-15.25c-2.16-3.4-4.24-6.89-6.2-10.51-2-4-1-9-5-10H167l4.41,38.27L164.05,52l2.14,7.45,16.75-4.19c4.25-1.08,7.58-2.27,10.11-4-1.87-2.36-3.71-4.74-5.51-7.18C186.32,45.84,184.33,46.83,181.17,47.64Z"/><rect class="cls-1" x="207.77" width="10.33" height="55.83"/><path class="cls-1" d="M233.35,0H223.11V7.72h7.63c6.79,0,8.84,3.35,8.84,13.22V55.83h10.33V20.56C249.91,5.68,246.84,0,233.35,0Z"/><rect class="cls-1" x="256.88" width="10.33" height="31.92"/><path class="cls-1" d="M309.25,18V0H299.2V20.66c0,4-.65,5.86-3.07,7L283.66,0H273.61l8.75,19.26c-7.26,1.86-10.14,6.14-10.14,15.82V55.83h10.14V32.38c0-3.63.46-5.68,2.88-6.51l13.59,30h10.05L299,34.06C305.71,32.29,309.25,28.94,309.25,18Z"/><path class="cls-1" d="M25.07,254.62H19.42V277.1H30.65V261.85C30.65,256.57,29.27,254.62,25.07,254.62Zm3.45,20.87h-7V256.24H24.7c2.88,0,3.82,1.38,3.82,5.58Z"/><rect class="cls-1" x="36.81" y="254.63" width="2.21" height="12.44"/><path class="cls-1" d="M44.31,278.11l5.32-1.31c.5-.12.95-.25,1.37-.38q-3.47.43-7,.8Z"/><path class="cls-1" d="M53.56,268.64c0,4.53-.82,5.61-4.34,6.51l-2.29-20.53H44.72l2.44,21.06-3.33.82.21.72q3.49-.36,7-.8c3.62-1.15,4.74-2.93,4.74-8.12V254.62H53.56Z"/><path class="cls-1" d="M62.49,277.1h2.17v-2.65l-2.17.34Z"/><path class="cls-1" d="M62.49,274.79l2.17-.34V254.62H62.49Z"/><path class="cls-1" d="M77,277.1h2.21v-5.32l-2.21.44Z"/><path class="cls-1" d="M73.29,254.62H69.77v1.65h3c3.22,0,4.27,1.58,4.27,6.11v9.84l2.21-.44V262.3C79.25,256.69,77.9,254.62,73.29,254.62Z"/><rect class="cls-1" x="85.33" y="254.63" width="2.21" height="12.44"/><path class="cls-1" d="M92.86,277.1H95v-8.88l-2.14.53Z"/><path class="cls-1" d="M104.52,265.74l-2.65.71a3.54,3.54,0,0,1-1.18.72l-.15-.36-1.93.5,4.29,9.79H105l-3.75-8.54A4.32,4.32,0,0,0,104.52,265.74Z"/><path class="cls-1" d="M93.05,254.62l3.34,7.61c-2.59.67-3.53,2.43-3.53,6.07v.45l2.14-.53v-.41c0-2.36.3-3.63,2-4.12l1.59,3.62,1.93-.5-5.32-12.19Z"/><path class="cls-1" d="M102.83,262.72c0,1.93-.2,3-1,3.73l2.65-.71a11.27,11.27,0,0,0,.44-3.55v-7.57h-2.13Z"/><path class="cls-1" d="M129,258.12a10.43,10.43,0,0,1,.49,3.7v13.67h-7V260.32l-2.1.68v16.1h11.24V261.85a12.73,12.73,0,0,0-.6-4.44Z"/><path class="cls-1" d="M126,254.62h-5.66V261l2.1-.68v-4.08h3.18c1.77,0,2.8.52,3.34,1.88l2-.71C130.26,255.44,128.73,254.62,126,254.62Z"/><path class="cls-1" d="M138.26,254.76l.37-.14h-.37Z"/><path class="cls-1" d="M143.47,254.62h-4.84l-.37.14V277.1h2.17V256.27H143c3.18,0,4.49,1.16,4.49,6V277.1h2.21V262.34C149.72,256.24,147.81,254.62,143.47,254.62Z"/><path class="cls-1" d="M161.46,254.62h-6.18v1.65h1.87v19.11H154v1.72h5.28V256.27h1.95c3.14,0,4.42,1.05,4.42,5.81v15h2.17V262.38C167.79,256.16,166,254.62,161.46,254.62Z"/><path class="cls-1" d="M179.15,254.62h-.83l-.24,1.62H179c3.49,0,4.12,1.79,4.12,5.76v13.45h-4.45v1.65h6.63V262.53C185.26,257.1,184.17,254.62,179.15,254.62Z"/><path class="cls-1" d="M173.19,256.27h2.33l-2.06,20.83h1.83a1.8,1.8,0,0,1,0-.22c.4-3.49.85-6.94,1.31-10.37l1-10.27h.47l.24-1.62h-5.13Z"/><path class="cls-1" d="M175.29,277.1h.3l1-10.59c-.46,3.43-.91,6.88-1.31,10.37A1.8,1.8,0,0,0,175.29,277.1Z"/><path class="cls-1" d="M212,262.19v-7.57h-2.13v8.1c0,2.69-.38,3.74-2.14,4.45l-5.46-12.55h-2.18l3.34,7.61c-2.59.67-3.53,2.43-3.53,6.07v8.8h2.14v-9.29c0-2.36.3-3.63,2-4.12L210,277.1h2.14l-3.75-8.54C211,267.74,212,266.35,212,262.19Z"/><polygon class="cls-1" points="226.04 254.63 217.02 254.63 217.02 256.27 223.87 256.27 223.87 275.45 217.02 275.45 217.02 277.1 228.03 277.1 228.03 275.45 226.04 275.45 226.04 254.63"/><rect class="cls-1" x="232.31" y="254.63" width="2.21" height="12.44"/><polygon class="cls-1" points="241.39 250.88 239.29 250.88 239.29 256.27 246.74 256.27 242.06 277.1 244.23 277.1 249.33 254.63 241.39 254.63 241.39 250.88"/><path class="cls-1" d="M265.63,262.19v-7.57H263.5v8.1c0,2.69-.38,3.74-2.14,4.45l-5.47-12.55h-2.17l3.34,7.61c-2.59.67-3.53,2.43-3.53,6.07v8.8h2.14v-9.29c0-2.36.3-3.63,2-4.12l5.88,13.41h2.14L262,268.56C264.58,267.74,265.63,266.35,265.63,262.19Z"/><polygon class="cls-1" points="279.65 254.63 270.63 254.63 270.63 256.27 277.48 256.27 277.48 275.45 270.63 275.45 270.63 277.1 281.64 277.1 281.64 275.45 279.65 275.45 279.65 254.63"/><path class="cls-2" d="M220.29,150.58A32.09,32.09,0,0,0,197,148a42.14,42.14,0,0,0-9.6,4.16q0,3.45-.06,6.91c.67-.47,1.35-.93,2.06-1.36,5.6-3.46,12.2-5.68,18.85-4.87a26.15,26.15,0,0,1,9.3,2.82,14.26,14.26,0,0,1,6.28,6.27,12.34,12.34,0,0,1-.79,11.17c-1.93,2.93-5.47,4.61-8.86,5.09a18.17,18.17,0,0,1-8.82-1.35,30.37,30.37,0,0,1-4.6-2.21,1,1,0,0,0-1.27,1.58,19.77,19.77,0,0,0,4.46,3.58,18.82,18.82,0,0,0,10.67,3,19,19,0,0,0,6.71-1.63,15.25,15.25,0,0,0,6.2-4.9,16.57,16.57,0,0,0,2.93-7.93,17,17,0,0,0-1.34-8.81A19.9,19.9,0,0,0,220.29,150.58Z"/><path class="cls-2" d="M177.41,160.13c-.42.46-.83.92-1.23,1.39a41.45,41.45,0,0,0-7.7-5.23,46,46,0,0,0-6.57-2.94,43.43,43.43,0,0,0-7.3-1.78c-9.62-1.54-19.39.13-28.65,2.79-8.85,2.55-17.44,6.06-26.39,8.24a75.74,75.74,0,0,1-17.66,2.28,77.68,77.68,0,0,1-15.51-1.59,182.49,182.49,0,0,1-18.65-5.2,1,1,0,0,0-.83,1.85,76,76,0,0,0,18.39,7.84,69,69,0,0,0,16.51,2.59A71.28,71.28,0,0,0,101,168.25c9.06-2.23,17.67-5.74,26.61-8.3,8.43-2.42,17.4-4,26.15-2.64A42.65,42.65,0,0,1,173,165.78a29.3,29.3,0,0,0-1.72,3c-1.53,3.11-2.48,6.85-1.28,10.22a8.36,8.36,0,0,0,2.93,4,7.16,7.16,0,0,0,7.19.57,6.83,6.83,0,0,0,2.38-1.92,9.18,9.18,0,0,0,2-5.85c-.08-3.88-2-7.38-4.37-10.34.47-.51.95-1,1.43-1.5a42.9,42.9,0,0,1,5.82-4.95q0-3.47.06-6.91c-.35.2-.71.39-1.06.61A42.91,42.91,0,0,0,177.41,160.13Zm-3.25,17.67c-.49-2.16.57-4.74,1.63-6.58.33-.56.68-1.12,1-1.65A13.18,13.18,0,0,1,180,176.1C180.56,180.91,175.32,183,174.16,177.8Z"/><path class="cls-1" d="M181.21,235.54l.79-.42h-.73Z"/><path class="cls-1" d="M1.61,236.73A5.42,5.42,0,0,0,0,240.6a4.53,4.53,0,0,0,4.53,4.53A3.77,3.77,0,0,0,8,242.89a2.63,2.63,0,0,0,.16-2.14,1.74,1.74,0,0,0-.52-.63,1.72,1.72,0,1,0-2,2.76,1.56,1.56,0,0,0,.46.24,2.26,2.26,0,0,1-1.5.56,3.08,3.08,0,0,1-3.08-3.08,4,4,0,0,1,4-4H179.21l2-1,.06-.42H5.48A5.47,5.47,0,0,0,1.61,236.73Z"/><path class="cls-1" d="M181.05,236.57c0-.34.11-.69.16-1l-2,1Z"/><path class="cls-1" d="M293.34,235.12H182l-.79.42c-.05.34-.11.69-.16,1H293.34a4,4,0,0,1,4,4,3.07,3.07,0,0,1-3.07,3.08,2.26,2.26,0,0,1-1.5-.56,1.56,1.56,0,0,0,.46-.24,1.72,1.72,0,1,0-2-2.76,1.65,1.65,0,0,0-.52.63,2.63,2.63,0,0,0,.16,2.14,3.77,3.77,0,0,0,3.44,2.24,4.53,4.53,0,0,0,4.53-4.53,5.5,5.5,0,0,0-5.48-5.48Z"/></g></g></svg>