<svg xmlns="http://www.w3.org/2000/svg" viewBox="0 0 307.9 150.6"><defs><style>.cls-1{fill:#603e5d;}</style></defs><g id="Layer_2" data-name="Layer 2"><g id="Layer_1-2" data-name="Layer 1"><path class="cls-1" d="M5.27,115.38a.7.7,0,0,0,.66-.55c6.85-18,16.6-44.19,23.44-62.28,2-.23,7.07-.33,15.36-.33,6.51,18.64,15.36,45.17,21.53,63.05l5.72.44c0,3-.11,6.21-.11,9.33H40.25c0-3.22.11-6.34.11-9.44l5.49-.33c.34,0,.56-.23.45-.56-.56-1.67-1.57-5.22-2.23-6.88a.73.73,0,0,0-.79-.55l-20.75.22c-.45,2.44-1.46,5.54-1.91,7.88l6.17.33c0,3,0,6.21-.11,9.33H0c0-3.22,0-6.34.1-9.33Zm27.8-42.52c-2.58,8.21-5.27,17-7.62,24.53-.11.45,0,.67.22.67H41.25c-2.23-7.33-4.92-16.43-7.62-25.2Z"/><path class="cls-1" d="M76.5,62.42c0-3,0-6.43.12-9.32H92.54c5,0,11.32-.11,16.81-.11,0,3-.11,6.43-.22,9.43l-7.06.34c-.12,0-.33.1-.33.44l-.23,50c0,2.12,0,2.44,5,2.44a45.14,45.14,0,0,0,9-.76,3,3,0,0,0,2-2.11l3.81-11.44c3.82.67,7.74,1.45,11.22,2.22-1.46,7.21-3,14.54-4.72,21.76-5.49-.11-20.63-.23-36.09-.23-5.16,0-10.88.12-15.48.12,0-3.11,0-6.45.12-9.44l5.71-.22a.53.53,0,0,0,.56-.55V62.64Z"/><path class="cls-1" d="M136.3,62.32V52.87c4.72,0,11.78.12,16.93.12,5.61,0,12-.12,16.6-.12,0,3,0,6.45-.11,9.45l-6.95.32c-.22,0-.22.22-.22.56l-.34,52,7.51.34c0,3.12,0,6.43-.11,9.55-4.6,0-11.21-.11-16.93-.11-5.05,0-11.44.11-16.48.11,0-3.12,0-6.43.1-9.55l6.51-.34c.22,0,.34-.21.34-.44V62.64Z"/><path class="cls-1" d="M181.41,115.6a.6.6,0,0,0,.45-.56V62.64l-6.51-.33c0-2.88,0-6.21.12-9.21,5.6-.11,16.82-.33,23.1-.33,11.1,0,19.17,0,25.56,2.89,5.16,2.33,9.53,8.1,9.53,13.75,0,7.55-5.83,13.44-13,16.11v.88c9.41,1.57,16.93,8.56,16.93,17.88,0,11.77-11.54,20.87-30.84,20.87-3.59,0-13.56-.11-15.81-.11h-15.7c0-2.9,0-6.22.11-9.11Zm18.84-2.22c-.12,2.44,2.35,3,4.93,3,7.07,0,12.67-3.88,12.67-11.42,0-6.11-5.5-12.23-14.46-12.23a18.05,18.05,0,0,0-3,.13Zm.22-29.53a19.5,19.5,0,0,0,2.8.11c7.19,0,12.12-4.44,12.12-11.33a11.11,11.11,0,0,0-11-11.22,14.61,14.61,0,0,0-3.81.34Z"/><path class="cls-1" d="M241.19,115.38a.71.71,0,0,0,.66-.55c6.84-18,16.6-44.19,23.45-62.28,2-.23,7.06-.33,15.34-.33,6.52,18.64,15.37,45.17,21.54,63.05l5.72.44c0,3-.11,6.21-.11,9.33H276.16c0-3.22.11-6.34.11-9.44l5.5-.33c.34,0,.56-.23.46-.56-.57-1.67-1.59-5.22-2.26-6.88a.71.71,0,0,0-.78-.55l-20.74.22c-.45,2.44-1.46,5.54-1.91,7.88l6.17.33c0,3,0,6.21-.12,9.33H235.91c0-3.22,0-6.34.11-9.33ZM269,72.86c-2.58,8.21-5.28,17-7.62,24.53-.11.45,0,.67.22.67h15.58c-2.24-7.33-4.93-16.43-7.63-25.2Z"/><path class="cls-1" d="M307.52,143h-48.6M49.08,143H.48"/><path class="cls-1" d="M153,0h0c0,.05-6.15,8-6.1,10.92a18.33,18.33,0,0,0,.89,5.29,5.39,5.39,0,1,0-.46,5.9,23.12,23.12,0,0,1-1.16,2.2c-.74,1.24-1.87,1.4-2.84,1.85s-4.54.23-6.63-.33c-4.73-1.28-5.28-3.32-5.71-6.75a2.62,2.62,0,1,0-.63,0c-.19,1.48-.44,3.24-.67,4.23a3.73,3.73,0,0,1-3.63,2.57c-1.12,0-2-.9-6.57-3.92a19.06,19.06,0,0,0-14.14-2.81c-4.76.8-7.7,7.41-7.7,7.41l1.25-1c1.24-1,2.48-1.56,6.78-1.23s5.33,2.24,7.25,4.37,4.53,6.94,9.28,7.62,8.38,2.46,13.13,5.16C139.74,44,151.25,43,153,42.83c1.75.17,13.28,1.12,17.67-1.36,4.74-2.7,8.37-4.49,13.12-5.16s7.36-5.49,9.28-7.62,2.95-4,7.24-4.37,5.56.22,6.81,1.23l1.24,1s-3-6.61-7.71-7.41A19,19,0,0,0,186.53,22c-4.53,3-5.44,3.92-6.57,3.92s-3.18-.66-3.62-2.57c-.24-1-.5-2.75-.68-4.23a2.61,2.61,0,1,0-.63,0c-.43,3.43-1,5.47-5.71,6.75-2.1.56-5.68.78-6.64.33s-2.09-.61-2.83-1.85c-.49-.82-.86-1.55-1.17-2.2a5.36,5.36,0,1,0-.46-5.9,18.62,18.62,0,0,0,.9-5.29C159.17,8,153.05.05,153,0"/><path class="cls-1" d="M131.83,38.83H174c3.12,0,5.66,2,5.66,4.37s-2.54,4.37-5.66,4.37H131.83c-3.12,0-5.66-2-5.66-4.37s2.54-4.37,5.66-4.37"/><path class="cls-1" d="M121,44.16a2,2,0,1,1-2-2,2,2,0,0,1,2,2"/><path class="cls-1" d="M110.21,44.16a2,2,0,1,1-2-2,2,2,0,0,1,2,2"/><path class="cls-1" d="M99.39,44.16a2,2,0,1,1-2-2,2,2,0,0,1,2,2"/><path class="cls-1" d="M88.55,44.16a2,2,0,1,1-2-2,2,2,0,0,1,2,2"/><path class="cls-1" d="M77.74,44.16a2,2,0,1,1-2-2,2,2,0,0,1,2,2"/><path class="cls-1" d="M66.91,44.16a2,2,0,1,1-2-2,2,2,0,0,1,2,2"/><path class="cls-1" d="M56.09,44.16a2,2,0,1,1-2-2,2,2,0,0,1,2,2"/><path class="cls-1" d="M45.27,44.16a2,2,0,1,1-2-2,2,2,0,0,1,2,2"/><path class="cls-1" d="M34.45,44.16a2,2,0,1,1-2-2,2,2,0,0,1,2,2"/><path class="cls-1" d="M24.5,44.16a2,2,0,1,1-2-2,2,2,0,0,1,2,2"/><path class="cls-1" d="M13.68,44.16a2,2,0,1,1-2-2,2,2,0,0,1,2,2"/><path class="cls-1" d="M297.07,44.16a2,2,0,1,1-2-2,2,2,0,0,1,2,2"/><path class="cls-1" d="M286.25,44.16a2,2,0,1,1-2-2,2,2,0,0,1,2,2"/><path class="cls-1" d="M275.43,44.16a2,2,0,1,1-2-2,2,2,0,0,1,2,2"/><path class="cls-1" d="M264.6,44.16a2,2,0,1,1-2-2,2,2,0,0,1,2,2"/><path class="cls-1" d="M253.78,44.16a2,2,0,1,1-2-2,2,2,0,0,1,2,2"/><path class="cls-1" d="M243,44.16a2,2,0,1,1-2-2,2,2,0,0,1,2,2"/><path class="cls-1" d="M232.14,44.16a2,2,0,1,1-2-2,2,2,0,0,1,2,2"/><path class="cls-1" d="M221.31,44.16a2,2,0,1,1-2-2,2,2,0,0,1,2,2"/><path class="cls-1" d="M210.49,44.16a2,2,0,1,1-2-2,2,2,0,0,1,2,2"/><path class="cls-1" d="M199.67,44.16a2,2,0,1,1-2-2,2,2,0,0,1,2,2"/><path class="cls-1" d="M188.85,44.16a2,2,0,1,1-2-2,2,2,0,0,1,2,2"/><path class="cls-1" d="M67.56,148.82H57.32v-9.94l.74-.92v0H56.55v-1.46h7.53q3.48,0,3.48,3.45Zm-1.4-1.47v-7.73a1.5,1.5,0,0,0-1.7-1.68H58.73v9.41ZM74.08,143l-1.42.64v-5.47c0-.17-.07-.25-.22-.25H70.21v-1.46h2.53c.89,0,1.34.48,1.34,1.43Zm14.54-6.54c.41,0,.58.2.51.59l-1.36,7.67c-.48,2.76-2,4.13-4.49,4.13h-.06a4.48,4.48,0,0,1-3.21-.93,5.2,5.2,0,0,1-1.23-3.11L78,138.75l.8-.74v-.07H76.93v-1.46Zm-1.11,1.46H79.37l.77,6.69a3.17,3.17,0,0,0,.93,2.28,3.13,3.13,0,0,0,2,.53h.16a3.24,3.24,0,0,0,2.15-.62,3.62,3.62,0,0,0,1-2.19ZM97,148.82H91l.51-1.47h4.06v-7.84c0-1-.49-1.57-1.48-1.57h-2v-1.46h1.94a3.09,3.09,0,0,1,2.24.71A3.23,3.23,0,0,1,97,139.6Zm11.88-4.45a4.41,4.41,0,0,1-1.08,2.91,4.18,4.18,0,0,1-3.39,1.54H99.28l.72-1.47h5c1.67,0,2.5-.75,2.5-2.26V140a1.8,1.8,0,0,0-2.06-2H99.86v-1.46H105q4,0,4,3.77Zm6.26,4-1.43.64V138.22c0-.19-.07-.28-.22-.28h-2.13v-1.46H114c.79,0,1.19.48,1.19,1.43Zm19.1.43H124v-9.94l.74-.92v0h-1.51v-1.46h7.53q3.48,0,3.48,3.45Zm-1.4-1.47v-7.73a1.5,1.5,0,0,0-1.7-1.68h-5.73v9.41Zm7.89-4.33-1.42.64v-5.47c0-.17-.07-.25-.22-.25h-2.23v-1.46h2.53c.9,0,1.34.48,1.34,1.43Zm13.59-6.54c.38,0,.53.18.46.51l-1.26,5.75a8.75,8.75,0,0,1-1.54,3.55,6.72,6.72,0,0,1-3,2.07l-5.89,2.24.59-1.73,3.91-1.47-1.83-9.29a.2.2,0,0,0-.22-.17h-1.93v-1.46h2.69a.61.61,0,0,1,.64.59l1.67,8.93-.56,1.19.05.06.94-.38a4.83,4.83,0,0,0,2.11-1.44,5.84,5.84,0,0,0,1.06-2.58l1-4.91H151v-1.46Zm6.53,11.91-1.43.64V138.22c0-.19-.07-.28-.21-.28H157.1v-1.46h2.59c.79,0,1.19.48,1.19,1.43Zm11.68,0-1.42.64v-9.24a1.63,1.63,0,0,0-1.85-1.85h-5.7v-1.46h5.31a3.91,3.91,0,0,1,2.77.84,3.69,3.69,0,0,1,.89,2.78Zm11.14-4.85a37.12,37.12,0,0,0,4.09,4.37l-.87,1.25h-.13a81.69,81.69,0,0,1-7.14-8.47l-.31-.42-.08,0a17.76,17.76,0,0,0-1.28,3.33,27.32,27.32,0,0,0-.83,3.56l1.78.28-.49,1.33h-1.29l-1.61,0-.08-.1a24.84,24.84,0,0,1,.8-4,23.32,23.32,0,0,1,1.46-4.21l1.21-.71-.13-.2-1-1.4a.51.51,0,0,0-.49-.21h-1.5v-1.48h2.39c.18,0,.34.13.49.37a62,62,0,0,0,4.6,6.22,39.79,39.79,0,0,0,2.16-6.59h1.44c.15,0,.21.07.17.19-.59,2-.92,3.12-1,3.26a12.31,12.31,0,0,1-1.21,2.94Zm22,5.28H195.45v-9.94l.74-.92v0h-1.51v-1.46h7.53c2.32,0,3.49,1.15,3.49,3.45Zm-1.42-1.47v-7.73a1.49,1.49,0,0,0-1.69-1.68h-5.73v9.41Zm15.46,1-1.46.64v-9.16a1.7,1.7,0,0,0-1.93-1.93h-5.28v10.45l-1.44.64v-10.2l.92-.82v-.07h-1.49v-1.46h7.07a4,4,0,0,1,2.75.8,3.34,3.34,0,0,1,.86,2.56Zm14.73,0L233,149v-9.57a1.34,1.34,0,0,0-1.52-1.52h-5.14v10.88H222l.57-1.47h2.39v-8.63l.83-.78h-2.23v-1.46h7.56a3.6,3.6,0,0,1,2.55.78,3.44,3.44,0,0,1,.82,2.58Zm14.74-.12c0,.37-.16.55-.47.55h-6.37l-.05-.08.64-1.39h4.81v-7.2a2.57,2.57,0,0,0-.5-1.76,2.4,2.4,0,0,0-1.76-.53h-1.85a2.05,2.05,0,0,0-1.69.73,4.7,4.7,0,0,0-.86,1.94l-2.05,8-1.54.53,1.8-7a5.63,5.63,0,0,0,.17-1.12,4.69,4.69,0,0,0-.64-1.42c-.41-.68-1-1.59-1.79-2.74v-.27h1.64l1.54,2.37a1,1,0,0,0,.24.28c.06,0,.14-.09.25-.35a4.65,4.65,0,0,1,.88-1.48c.54-.59,1.6-.9,3.18-.9A6.35,6.35,0,0,1,248,137a3.15,3.15,0,0,1,1.24,2.9Z"/></g></g></svg>