<svg xmlns="http://www.w3.org/2000/svg" viewBox="0 0 737.69 363.11"><defs><style>.cls-1{fill:#fff;}</style></defs><g id="Layer_2" data-name="Layer 2"><g id="Layer_1-2" data-name="Layer 1"><path class="cls-1" d="M4.27,65.93H25V83.79L13.75,117H0Z"/><path class="cls-1" d="M101.34,0V94.86H76v-76H37.31V0ZM37.94,35.73h25.3V94.86H37.94Z"/><path class="cls-1" d="M150.67,0c24.66,0,31.62,10.28,31.62,39.37V94.86H147.35V76h10.11V32.09c0-10.59-2.05-13.91-9.48-13.91h-2.53l-7.59,76.68h-24.5l8.06-76h-8.54V0Z"/><path class="cls-1" d="M221.18,94.86h-25.3V0h25.3Z"/><path class="cls-1" d="M301.81,53.59c0,31.78-11.07,41.27-37.94,41.27H239.2L233.2,0h68.61ZM277.15,18.18h-18l3.17,58.5h2.84c9.64,0,12-4.75,12-19Z"/><path class="cls-1" d="M379.75,0V66.56c0,19.6-9.16,28.3-27.19,28.3h-6.95V76h.94c5.85,0,7.91-2.05,7.91-11.22v-46H314V0ZM314.3,35.73h25.3v79.68H314.3Z"/><path class="cls-1" d="M486.31,0V94.86H461v-76H422.29V0ZM422.92,35.73h25.29V94.86H422.92Z"/><path class="cls-1" d="M495.17,94.86V76h6.48c6.48,0,8.22-2.84,8.22-11.06V18.81h-10V0h35.26V69.72c0,18.5-6.32,25.14-23.24,25.14Z"/><path class="cls-1" d="M574.69,94.86H549.4V0h25.29Z"/><path class="cls-1" d="M626.87,0c23.24,0,31.46,8.06,31.46,36.68V94.86H633V32.41c0-10.75-2.69-13.6-9.64-13.6h-4.27V94.86H584.18V75.41h10.91V18.81H588V0Z"/><path class="cls-1" d="M707.66,0c21.5,0,30,7.9,30,35.89v59H712.4V35.1c0-13.28-2.37-16.29-10.59-16.29h-4.43V94.86h-25.3V0Z"/><path class="cls-1" d="M109.17,134.13c19,0,25.14,8.69,25.14,31.93V229h-53V134.13Zm11.38,84.26V165.75c0-16-3.63-21-14.07-21H95.1v73.67Z"/><path class="cls-1" d="M165.46,187.72H150.91V134.13h14.55Z"/><path class="cls-1" d="M196.76,134.13c19,0,25.45,7.43,25.45,30V199c0,22.61-6.48,30-25.45,30H178.58V218.08h12.64c14.07,0,16.45-5.06,16.45-20.08V165.12c0-15-2.38-20.08-16.45-20.08H178.58V134.13Z"/><path class="cls-1" d="M253.67,229H239.13V134.13h14.54Z"/><path class="cls-1" d="M295.57,229v-60.4c0-17.55-3.8-23.55-16.13-23.55h-12.8V134.13h16.28c21.82,0,27.19,9.33,27.19,34V229Z"/><path class="cls-1" d="M383.79,165.12c0,18.33-5.54,24-16.61,27.19L383.47,229H369.4l-23.72-53.12c-5.21,1.89-6.32,6-6.32,13.59V229H325.29V193.1c0-16,4.27-23.4,16.28-26.4L327,134.13H341.1l22,49.17c5.38-2.37,6.64-5.85,6.64-14.39V134.13h14.08Z"/><path class="cls-1" d="M458.57,134.13c20.55,0,28.3,7,28.3,34V229H472.32V165.91c0-17.08-4.42-20.87-15.65-20.87h-7v84h-26.4V217.76H436V145h-7.59V134.13Z"/><path class="cls-1" d="M519.75,229H505.21V134.13h14.54Z"/><path class="cls-1" d="M544.1,229l18.82-84H532.4V118.32h13.91v15.81h33.84L558.33,229Z"/><path class="cls-1" d="M606.71,187.72H592.16V134.13h14.55Z"/><path class="cls-1" d="M630.11,229l18.81-84H618.41V118.32h13.91v15.81h33.83L644.33,229Z"/><path class="cls-1" d="M144.19,268.26v94.85H129.64V279.17H90.91V268.26ZM91.86,302.88H106.4v60.23H91.86Z"/><path class="cls-1" d="M188.14,268.26c22.29,0,27.67,10.43,27.67,35.41v59.44h-30.2v-10.9h16V299.72c0-14.7-2.53-20.87-14.86-20.87H182l-8.22,84.26H159.68l8.54-83.94h-9.33V268.26Z"/><path class="cls-1" d="M260.07,268.26c19.45,0,27.67,7.11,27.67,33.67v61.18H273.2V301.46c0-18-4.59-22.29-16.29-22.29h-8.69v83.94H233.67V268.26Z"/><path class="cls-1" d="M387.82,268.26v94.85H373.27V279.17H334.54V268.26Zm-52.33,34.62H350v60.23H335.49Z"/><path class="cls-1" d="M429.56,363.11V302.72c0-17.55-3.8-23.55-16.13-23.55h-12.8V268.26h16.28c21.82,0,27.19,9.32,27.19,34v60.86Z"/><path class="cls-1" d="M474.93,321.85H460.39V268.26h14.54Z"/><path class="cls-1" d="M507.81,363.11H493.27V268.26h14.54Z"/><path class="cls-1" d="M541.65,363.11H527.1V268.26h14.55Z"/><path class="cls-1" d="M616.43,299.24c0,18.34-5.53,24-16.6,27.2l16.28,36.67H602L578.33,310c-5.22,1.9-6.33,6-6.33,13.6v39.52H557.93V327.23c0-16,4.27-23.4,16.29-26.41l-14.55-32.56h14.07l22,49.16c5.37-2.37,6.64-5.84,6.64-14.38V268.26h14.07Z"/><path class="cls-1" d="M648.68,363.11H634.14V268.26h14.54Z"/></g></g></svg>